HIERARCHY
ROOT Hips
{
	OFFSET 0.000000 0.000000 0.000000 
	CHANNELS 6 Xposition Yposition Zposition Yrotation Zrotation Xrotation 
	JOINT Lumbar
	{
		OFFSET 0.000000 0.000000 0.000000 
		CHANNELS 3 Zrotation Xrotation Yrotation
		JOINT Neck
		{
			OFFSET 0.000000 0.445665 0.000000 
			CHANNELS 3 Zrotation Xrotation Yrotation
			End Site
			{
				OFFSET 0.000000 0.227535 0.000000 
			}
		}
		JOINT RightShoulder
		{
			OFFSET 0.019635 0.377685 0.194865 
			CHANNELS 3 Zrotation Xrotation Yrotation
			JOINT RightElbow
			{
				OFFSET 0.000000 -0.243375 0.000000 
				CHANNELS 2 Zrotation Yrotation
				JOINT RightWrist
				{
					OFFSET 0.000000 -0.264825 0.000000 
					CHANNELS 2 Zrotation Xrotation
					End Site
					{
						OFFSET 0.006600 -0.176220 0.000990 
					}
				}
			}
		}
		JOINT LeftShoulder
		{
			OFFSET 0.019635 0.377685 -0.194865 
			CHANNELS 3 Zrotation Xrotation Yrotation
			JOINT LeftElbow
			{
				OFFSET 0.000000 -0.243375 0.000000 
				CHANNELS 2 Zrotation Yrotation
				JOINT LeftWrist
				{
					OFFSET 0.000000 -0.264825 0.000000 
					CHANNELS 2 Zrotation Xrotation
					End Site
					{
						OFFSET 0.006600 -0.176220 -0.000990 
					}
				}
			}
		}
	}
	JOINT RightHip
	{
		OFFSET 0.052140 -0.069960 0.075570 
		CHANNELS 3 Zrotation Xrotation Yrotation
		JOINT RightKnee
		{
			OFFSET 0.000000 -0.402270 0.000000 
			CHANNELS 1 Zrotation
			JOINT RightAnkle
			{
				OFFSET 0.000000 -0.404085 0.000000 
				CHANNELS 3 Zrotation Xrotation Yrotation
				End Site
				{
					OFFSET 0.204105 -0.089430 0.008415 
				}
			}
		}
	}
	JOINT LeftHip
	{
		OFFSET 0.052140 -0.069960 -0.075570 
		CHANNELS 3 Zrotation Xrotation Yrotation
		JOINT LeftKnee
		{
			OFFSET 0.000000 -0.402270 0.000000 
			CHANNELS 1 Zrotation
			JOINT LeftAnkle
			{
				OFFSET 0.000000 -0.404085 0.000000 
				CHANNELS 3 Zrotation Xrotation Yrotation
				End Site
				{
					OFFSET 0.204105 -0.089430 -0.008415 
				}
			}
		}
	}
}
MOTION
Frames: 19
Frame Time: 0.02
-0.00334 -0.0007 0.00175 100.29509 -32.951 -7.5892 40.58542 1.21238 -9.21363 -15.4093 -4.42259 -0.384 -27.1919 -11.36352 2.14131 46.0445 83.33238 -0.65042 0.10657 -22.3917 12.44418 -3.92653 30.18611 -82.04897 -2.34107 -5.8971 42.44117 -0.79836 -10.1372 -19.44823 -8.90089 -2.34526 -1.90952 37.49313 4.81386 3.70038 -27.85955 -10.00886 5.7901 3.95757
-0.00138 -0.00057 0.00323 100.21101 -32.99457 -7.5391 40.00598 1.19164 -9.28705 -15.47705 -4.89289 -0.39354 -27.59875 -11.44945 2.24733 46.2433 83.35599 -0.6305 0.11431 -22.0416 12.41678 -4.21978 29.70474 -82.04623 -2.31224 -5.69735 42.61166 -0.63542 -9.74835 -19.45132 -8.92821 -2.41692 -1.95609 37.60286 4.92704 4.01166 -27.8462 -9.9738 5.77221 3.94336
0.00058 -0.00044 0.00471 100.12741 -33.03824 -7.4891 39.42767 1.17104 -9.36061 -15.54466 -5.36247 -0.40306 -28.00487 -11.53556 2.35327 46.44185 83.37979 -0.61044 0.12206 -21.69189 12.3895 -4.51295 29.2248 -82.04351 -2.28343 -5.49789 42.78196 -0.47297 -9.36105 -19.45455 -8.95543 -2.48832 -2.0025 37.71254 5.04003 4.32204 -27.83292 -9.93881 5.75435 3.92918
0.00253 -0.00031 0.00619 100.0436 -33.08171 -7.43915 38.84991 1.15038 -9.43387 -15.61221 -5.83145 -0.41257 -28.41056 -11.62131 2.45901 46.64012 83.40335 -0.59057 0.12978 -21.34276 12.36217 -4.80545 28.74486 -82.04078 -2.25469 -5.2987 42.95199 -0.31053 -8.97346 -19.45765 -8.98266 -2.55975 -2.04893 37.82198 5.15289 4.63241 -27.81961 -9.90385 5.73651 3.91501
0.00449 -0.00018 0.00768 99.95927 -33.12499 -7.38912 38.27127 1.12954 -9.50684 -15.67985 -6.30086 -0.4221 -28.81675 -11.70672 2.5647 46.83846 83.42667 -0.57087 0.13748 -20.99348 12.33472 -5.0977 28.26363 -82.03802 -2.22596 -5.09933 43.12208 -0.14758 -8.58417 -19.46056 -9.00998 -2.63144 -2.09554 37.93136 5.26587 4.94356 -27.80624 -9.86883 5.71866 3.90081
0.00645 -4e-05 0.00915 99.87724 -33.16951 -7.33916 37.69371 1.10947 -9.58164 -15.7474 -6.77074 -0.4316 -29.22268 -11.79429 2.67115 47.03739 83.4515 -0.55004 0.14534 -20.6429 12.30783 -5.39277 27.78651 -82.03539 -2.19694 -4.89967 43.29278 0.01381 -8.20104 -19.46445 -9.03701 -2.70224 -2.14153 38.04167 5.37885 5.25222 -27.79312 -9.83392 5.7008 3.88666
0.0084 9e-05 0.01065 99.79055 -33.21146 -7.28917 37.11462 1.08785 -9.65271 -15.81508 -7.2392 -0.44114 -29.62874 -11.87743 2.77604 47.23508 83.47313 -0.53162 0.15288 -20.29533 12.27978 -5.68192 27.30135 -82.03249 -2.16859 -4.70087 43.46211 0.17813 -7.80604 -19.46638 -9.06459 -2.77474 -2.1887 38.14999 5.49177 5.56583 -27.77952 -9.79881 5.68296 3.87244
0.01036 0.00022 0.01212 99.70838 -33.25583 -7.23912 36.53691 1.0677 -9.72717 -15.88259 -7.70891 -0.45065 -30.03458 -11.96463 2.8822 47.43361 83.49797 -0.51076 0.16071 -19.94496 12.2529 -5.9764 26.8241 -82.02985 -2.13952 -4.50118 43.63262 0.33977 -7.42182 -19.47009 -9.09164 -2.84572 -2.23481 38.26014 5.60463 5.87437 -27.76635 -9.76393 5.66512 3.85829
0.01232 0.00035 0.01356 99.63086 -33.30299 -7.18933 35.96064 1.04922 -9.80606 -15.95012 -8.1807 -0.46009 -30.44082 -12.05702 2.99068 47.63449 83.52576 -0.48772 0.16893 -19.59102 12.22705 -6.27814 26.35437 -82.02751 -2.10996 -4.30063 43.80504 0.49811 -7.05134 -19.47611 -9.11817 -2.91468 -2.27952 38.37264 5.71795 6.17886 -27.75375 -9.72912 5.6472 3.84416
0.01426 0.00049 0.01519 99.52395 -33.3336 -7.13901 35.37532 1.02074 -9.8603 -16.01825 -8.64223 -0.46986 -30.8468 -12.12022 3.08812 47.82585 83.53368 -0.47965 0.17498 -19.25716 12.19406 -6.54036 25.83491 -82.0234 -2.08438 -4.10571 43.96789 0.67538 -6.60349 -19.46925 -9.14808 -2.99477 -2.33198 38.47194 5.83021 6.51311 -27.738 -9.69328 5.62948 3.82972
0.01624 0.00062 0.01641 99.48072 -33.39943 -7.08919 34.80968 1.01358 -9.96596 -16.08463 -9.12418 -0.47894 -31.25195 -12.24453 3.20735 48.03468 83.5853 -0.43848 0.18555 -18.88133 12.17692 -6.88441 25.42454 -82.02302 -2.04968 -3.89853 44.14998 0.81275 -6.31778 -19.48928 -9.1706 -3.05169 -2.36828 38.59888 5.9437 6.78043 -27.72883 -9.66003 5.61153 3.81606
0.01833 0.00075 0.01663 99.60053 -33.56043 -7.04574 34.29401 1.06397 -10.21875 -16.15031 -9.67245 -0.48622 -31.66577 -12.54201 3.39976 48.31259 83.74286 -0.3185 0.20931 -18.38634 12.19697 -7.46688 25.28312 -82.03319 -1.99608 -3.66029 44.39283 0.83922 -6.4912 -19.58591 -9.17486 -3.04189 -2.35821 38.80389 6.06927 6.89775 -27.73813 -9.63034 5.59126 3.80338
0.02046 0.00089 0.01643 99.78659 -33.757 -7.00188 33.79917 1.136 -10.5217 -16.21353 -10.23872 -0.49278 -32.0763 -12.89971 3.61182 48.60336 83.94643 -0.16344 0.23752 -17.85048 12.23387 -8.12784 25.25757 -82.04704 -1.93258 -3.40925 44.6532 0.8259 -6.8254 -19.70894 -9.1713 -3.00938 -2.33226 39.03597 6.19481 6.94257 -27.75387 -9.6038 5.57103 3.79165
0.02258 0.00101 0.01637 99.94983 -33.93834 -6.95493 33.29703 1.1987 -10.79826 -16.27518 -10.79082 -0.49963 -32.48177 -13.22643 3.80583 48.87539 84.13868 -0.0161 0.26309 -17.33522 12.26745 -8.74524 25.19799 -82.05907 -1.8691 -3.16241 44.9008 0.83169 -7.07596 -19.81814 -9.17006 -2.98939 -2.31496 39.25454 6.31421 6.99741 -27.76645 -9.5783 5.55195 3.78027
0.02466 0.00117 0.01654 100.08189 -34.1161 -6.92174 32.78447 1.25914 -11.09164 -16.34801 -11.37076 -0.50667 -32.91674 -13.56907 4.03735 49.20498 84.29246 0.0982 0.29104 -16.80906 12.28367 -9.40069 25.05719 -82.07183 -1.82288 -2.92243 45.17015 0.83299 -7.36898 -19.93544 -9.17416 -2.96024 -2.29169 39.47939 6.45811 7.14501 -27.78035 -9.54283 5.52814 3.76578
0.02684 0.00126 0.01611 100.29527 -34.30937 -6.85986 32.30018 1.32963 -11.35994 -16.39718 -11.89381 -0.51312 -33.28717 -13.89214 4.19671 49.41388 84.53484 0.28761 0.31541 -16.29875 12.33889 -9.98975 25.11655 -82.08379 -1.74038 -2.66502 45.39658 0.83427 -7.61482 -20.04171 -9.1651 -2.94458 -2.27694 39.69615 6.55282 7.08707 -27.79265 -9.52828 5.51391 3.75778
0.02927 0.00115 0.01428 100.71149 -34.53943 -6.71813 31.87515 1.42058 -11.56288 -16.37959 -12.2817 -0.51828 -33.49926 -14.15162 4.14045 49.31863 85.03168 0.69249 0.32809 -15.819 12.50804 -10.42637 25.67019 -82.09391 -1.54309 -2.36404 45.51451 0.84538 -7.66179 -20.11436 -9.12324 -2.97373 -2.29109 39.89538 6.49625 6.43844 -27.80193 -9.57586 5.52863 3.76927
0.03181 0.00096 0.01182 101.20852 -34.7831 -6.54763 31.48063 1.5212 -11.73572 -16.33857 -12.60638 -0.52284 -33.64247 -14.38811 4.01286 49.09511 85.6124 1.16824 0.3387 -15.36152 12.71416 -10.78514 26.42695 -82.10287 -1.313 -2.04608 45.58552 0.85813 -7.65996 -20.17432 -9.06813 -3.017 -2.31418 40.08296 6.3932 5.59339 -27.80872 -9.64343 5.55248 3.78691
0.03431 0.00081 0.00955 101.67178 -35.01909 -6.39087 31.08081 1.6188 -11.91179 -16.30973 -12.9432 -0.52757 -33.8053 -14.63195 3.92576 48.9096 86.1406 1.60113 0.34872 -14.90836 12.89624 -11.14536 27.11028 -82.11152 -1.10886 -1.73444 45.66921 0.86962 -7.70113 -20.238 -9.01797 -3.05231 -2.33208 40.2689 6.32142 4.86472 -27.81482 -9.69843 5.57055 3.80058
